<svg width="40" height="256" viewBox="0 0 40 256" fill="none" xmlns="http://www.w3.org/2000/svg">
<line x1="20" x2="20" y2="226" stroke="url(#paint0_linear_151:192)" stroke-width="2"/>
<g filter="url(#filter0_d_151:192)">
<circle cx="20" cy="226" r="3" fill="#BBA182"/>
</g>
<path d="M18.6252 246.014C18.7746 246.621 18.8492 247.288 18.8492 248.016C18.8492 248.744 18.7746 249.416 18.6252 250.032C18.4852 250.648 18.2659 251.203 17.9672 251.698C17.6779 252.183 17.2766 252.566 16.7632 252.846C16.2592 253.126 15.6666 253.266 14.9852 253.266C14.0892 253.266 13.3379 253.019 12.7312 252.524C12.1339 252.029 11.7092 251.404 11.4572 250.648C11.2146 249.883 11.0932 249.005 11.0932 248.016C11.0932 247.288 11.1632 246.621 11.3032 246.014C11.4526 245.407 11.6766 244.861 11.9752 244.376C12.2739 243.891 12.6799 243.513 13.1932 243.242C13.7066 242.962 14.3039 242.822 14.9852 242.822C15.6666 242.822 16.2592 242.962 16.7632 243.242C17.2766 243.513 17.6779 243.891 17.9672 244.376C18.2659 244.861 18.4852 245.407 18.6252 246.014ZM16.4412 248.016C16.4412 247.652 16.4226 247.307 16.3852 246.98C16.3479 246.644 16.2779 246.303 16.1752 245.958C16.0819 245.613 15.9326 245.337 15.7272 245.132C15.5219 244.917 15.2746 244.81 14.9852 244.81C14.6959 244.81 14.4439 244.917 14.2292 245.132C14.0239 245.337 13.8699 245.613 13.7672 245.958C13.6739 246.303 13.6039 246.644 13.5572 246.98C13.5199 247.307 13.5012 247.652 13.5012 248.016C13.5012 248.38 13.5199 248.73 13.5572 249.066C13.6039 249.402 13.6739 249.747 13.7672 250.102C13.8699 250.447 14.0239 250.727 14.2292 250.942C14.4346 251.147 14.6866 251.25 14.9852 251.25C15.2746 251.25 15.5219 251.147 15.7272 250.942C15.9326 250.727 16.0819 250.447 16.1752 250.102C16.2779 249.747 16.3479 249.407 16.3852 249.08C16.4226 248.744 16.4412 248.389 16.4412 248.016ZM25.814 253H23.462V245.72L21.614 247.148L20.396 245.482L23.658 243.088H25.814V253Z" fill="#BBA182"/>
<defs>
<filter id="filter0_d_151:192" x="0" y="206" width="40" height="40" filterUnits="userSpaceOnUse" color-interpolation-filters="sRGB">
<feFlood flood-opacity="0" result="BackgroundImageFix"/>
<feColorMatrix in="SourceAlpha" type="matrix" values="0 0 0 0 0 0 0 0 0 0 0 0 0 0 0 0 0 0 127 0" result="hardAlpha"/>
<feOffset/>
<feGaussianBlur stdDeviation="8.5"/>
<feColorMatrix type="matrix" values="0 0 0 0 0.733333 0 0 0 0 0.631373 0 0 0 0 0.509804 0 0 0 1 0"/>
<feBlend mode="normal" in2="BackgroundImageFix" result="effect1_dropShadow_151:192"/>
<feBlend mode="normal" in="SourceGraphic" in2="effect1_dropShadow_151:192" result="shape"/>
</filter>
<linearGradient id="paint0_linear_151:192" x1="18" y1="216.96" x2="17.9949" y2="-1.95591e-06" gradientUnits="userSpaceOnUse">
<stop stop-color="#BBA182"/>
<stop offset="1" stop-color="#BBA182" stop-opacity="0"/>
</linearGradient>
</defs>
</svg>
