<svg width="135" height="82" viewBox="0 0 135 82" fill="none" xmlns="http://www.w3.org/2000/svg">
<path d="M28.6133 73.0902C28.0833 72.7002 27.6032 72.4102 27.0932 72.2302C26.5832 72.0502 26.0533 71.9502 25.4933 71.9302C24.3833 71.8802 23.1732 72.0902 22.0132 72.3702C20.8532 72.6602 19.7532 73.0002 18.9232 73.2802C18.1032 73.5502 17.5732 73.7702 17.5732 73.7702C17.5732 73.7702 18.0932 74.0702 18.9432 74.4302C19.7832 74.7902 20.9532 75.2002 22.2232 75.4202C23.4832 75.6402 24.8632 75.6702 26.0732 75.3202C27.2532 74.9902 28.2733 74.2502 28.6133 73.0902Z" fill="#BBA182"/>
<path d="M25.0633 67.9501C25.5133 68.9601 26.1733 69.9501 27.0333 70.6001C27.4633 70.9201 27.9433 71.1601 28.4533 71.2601C28.9633 71.3601 29.5133 71.3301 30.0533 71.1101C30.0833 69.9001 29.7533 68.9401 29.2333 68.1001C28.7133 67.2701 27.9733 66.5501 27.2133 65.9201C26.4533 65.3001 25.6733 64.7801 25.0833 64.4101C24.4933 64.0401 24.0933 63.8301 24.0933 63.8301C24.0933 63.8301 24.1033 63.9601 24.1233 64.1901C24.1433 64.4101 24.1833 64.7401 24.2433 65.1301C24.3633 65.9001 24.6133 66.9401 25.0633 67.9501Z" fill="#BBA182"/>
<path d="M16.7333 70.6598C17.8933 70.5998 18.9233 70.1598 19.6433 69.1898C19.0633 68.1598 18.1933 67.5998 17.1433 67.2798C16.0933 66.9598 14.8733 66.8698 13.6733 66.8298C12.4733 66.7998 11.2833 66.8198 10.3933 66.8298C9.48334 66.8398 8.90332 66.8598 8.90332 66.8598C8.90332 66.8598 9.01333 66.9798 9.22333 67.1798C9.43333 67.3698 9.73334 67.6498 10.1133 67.9598C10.8633 68.5798 11.9333 69.3098 13.1133 69.8398C14.2833 70.3698 15.5633 70.7098 16.7333 70.6598Z" fill="#BBA182"/>
<path d="M18.9333 66.0702C19.5933 66.9002 20.5133 67.4502 21.6533 67.4002C22.1233 66.2802 22.0433 65.2202 21.7233 64.2402C21.4033 63.2702 20.8533 62.3702 20.2833 61.5902C19.7133 60.8102 19.1433 60.1502 18.7133 59.6702C18.5033 59.4302 18.3233 59.2402 18.2033 59.1102C18.0833 58.9802 18.0133 58.9102 18.0133 58.9102C18.0133 58.9102 17.9733 59.0302 17.9133 59.2402C17.8533 59.4602 17.7933 59.7602 17.7333 60.1402C17.6133 60.9002 17.5533 61.9402 17.7133 63.0302C17.8833 64.1202 18.2833 65.2302 18.9333 66.0702Z" fill="#BBA182"/>
<path d="M4.72327 57.7498C3.90327 57.4898 3.36328 57.3398 3.36328 57.3398C3.36328 57.3398 3.41328 57.4798 3.51328 57.7098C3.62328 57.9398 3.79327 58.2598 4.00327 58.6298C4.21327 59.0098 4.47328 59.4498 4.77328 59.9098C4.92328 60.1398 5.08327 60.3798 5.25327 60.6098L5.38327 60.7898L5.55328 61.0098C5.66328 61.1598 5.78326 61.2998 5.90326 61.4498C6.86326 62.5998 8.05327 63.4698 9.22327 63.8398C10.3933 64.2098 11.5233 64.0898 12.4933 63.3698C12.2233 62.2098 11.5733 61.4198 10.6933 60.7298C10.4833 60.5598 10.2333 60.3998 9.99329 60.2298C9.75329 60.0698 9.49328 59.9098 9.23328 59.7498C8.97328 59.5898 8.70326 59.4298 8.43326 59.2798C8.17326 59.1398 7.91326 59.0098 7.65326 58.8898C6.62326 58.3898 5.54327 58.0098 4.72327 57.7498Z" fill="#BBA182"/>
<path d="M12.7832 59.8102C13.0932 60.8102 13.8133 61.6302 14.9133 61.8902C15.6733 60.9502 15.9233 59.9302 15.9833 58.9602C16.0333 57.9902 15.9133 57.0802 15.8033 56.3102C15.7633 55.9802 15.6333 55.4302 15.5133 55.0002C15.3933 54.5602 15.2533 54.1602 15.1333 53.8202C15.0133 53.4802 14.8932 53.2102 14.8132 53.0202C14.7432 52.8302 14.6933 52.7202 14.6933 52.7202C14.6933 52.7202 14.6133 52.8302 14.4933 53.0202C14.3633 53.2202 14.2033 53.5002 14.0233 53.8502C13.6633 54.5402 13.2233 55.5202 12.9233 56.6002C12.8433 56.8702 12.7733 57.1402 12.7233 57.4302C12.6733 57.6902 12.6333 57.9502 12.6133 58.2302C12.5933 58.5002 12.6133 58.7702 12.6333 59.0402C12.6533 59.3002 12.7132 59.5602 12.7832 59.8102Z" fill="#BBA182"/>
<path d="M3.46329 53.68C3.65329 53.91 3.8733 54.12 4.1033 54.31C4.3233 54.5 4.56331 54.68 4.80331 54.83C5.76331 55.45 6.82331 55.7 7.98331 55.37C8.08331 54.79 8.0333 54.26 7.8833 53.77C7.8033 53.53 7.7033 53.29 7.5733 53.07C7.4433 52.84 7.29331 52.63 7.14331 52.41C6.52331 51.55 5.56329 50.8 4.59329 50.13C3.65329 49.46 2.66329 48.88 1.90329 48.46C1.13329 48.05 0.643311 47.79 0.643311 47.79C0.643311 47.79 0.663297 47.93 0.723297 48.18C0.793297 48.43 0.893304 48.78 1.0433 49.2C1.3333 50.04 1.73331 51.17 2.39331 52.2C2.71331 52.72 3.07329 53.23 3.46329 53.68Z" fill="#BBA182"/>
<path d="M9.72329 53.2299C9.95329 53.6799 10.2833 54.0899 10.7433 54.4099C11.7933 53.8099 12.3933 52.9099 12.7133 51.9299C12.7933 51.6899 12.8533 51.4399 12.9033 51.1799C12.9233 51.0499 12.9433 50.9299 12.9633 50.7999C12.9833 50.6699 13.0033 50.5399 13.0233 50.4099C13.0933 49.8899 13.1033 49.3799 13.0933 48.8799C13.0333 47.8899 12.9633 46.9599 12.8433 46.2799C12.7833 45.9399 12.7233 45.6599 12.6833 45.4699C12.6533 45.2799 12.6333 45.1699 12.6333 45.1699C12.6333 45.1699 12.5333 45.2599 12.3733 45.4199C12.2033 45.5799 11.9933 45.8199 11.7533 46.1199C11.2633 46.7199 10.6533 47.5799 10.1533 48.5799C9.68328 49.5699 9.37329 50.6899 9.38329 51.7499C9.38329 52.0199 9.4233 52.2699 9.4833 52.5199C9.5233 52.7699 9.61329 52.9999 9.72329 53.2299Z" fill="#BBA182"/>
<path d="M1.45321 44.1502C1.60321 44.4202 1.75319 44.6802 1.93319 44.9102C2.11319 45.1502 2.31322 45.3702 2.52322 45.5602C3.35322 46.3602 4.34321 46.8202 5.54321 46.7102C5.75321 46.1602 5.8132 45.6402 5.7532 45.1302C5.7232 44.8802 5.66321 44.6302 5.58321 44.3802C5.50321 44.1302 5.42319 43.8902 5.31319 43.6502C5.09319 43.1602 4.78319 42.6902 4.43319 42.2302C4.25319 42.0002 4.06321 41.7702 3.89321 41.5502C3.71321 41.3202 3.5132 41.1002 3.3232 40.8902C2.5432 40.0202 1.67319 39.2302 1.06319 38.6402C0.443195 38.0502 0.00319699 37.6802 0.00319699 37.6802C0.00319699 37.6802 -0.0167945 38.2802 0.0432055 39.1802C0.0732055 39.6302 0.163217 40.1502 0.273217 40.7102C0.323217 40.9902 0.393188 41.2802 0.463188 41.5702C0.533188 41.8602 0.603198 42.1602 0.723198 42.4502C0.903198 43.0302 1.15321 43.6102 1.45321 44.1502Z" fill="#BBA182"/>
<path d="M8.4031 46.0699C9.5531 45.6799 10.3131 44.9199 10.8131 44.0399C10.9431 43.8199 11.0431 43.5999 11.1431 43.3599C11.2531 43.1299 11.3531 42.8899 11.4331 42.6499C11.6031 42.1699 11.7231 41.6899 11.8031 41.2199C11.8931 40.7499 11.9931 40.2899 12.0331 39.8699C12.0631 39.6599 12.0831 39.4499 12.0931 39.2599C12.1031 39.0699 12.1131 38.8899 12.1331 38.7199C12.2031 38.0599 12.1931 37.6299 12.1931 37.6299C12.1931 37.6299 11.7531 37.8699 11.1131 38.3299C10.9531 38.4399 10.7831 38.5699 10.6031 38.7099C10.4231 38.8499 10.2431 39.0099 10.0631 39.1699C9.7131 39.4999 9.34311 39.8899 9.00311 40.3099C8.83311 40.5199 8.66311 40.7399 8.50311 40.9799C8.42311 41.0899 8.34313 41.2099 8.27313 41.3299C8.20313 41.4499 8.14312 41.5699 8.08312 41.6899C7.84312 42.1799 7.6631 42.6899 7.5631 43.2099C7.5131 43.4699 7.48313 43.7199 7.49313 43.9799C7.50313 44.2299 7.54312 44.4799 7.61312 44.7199C7.76312 45.2199 8.0131 45.6699 8.4031 46.0699Z" fill="#BBA182"/>
<path d="M4.24323 31.5899C3.97323 31.0699 3.6832 30.5699 3.4032 30.1099C3.1132 29.6399 2.85321 29.2099 2.63321 28.8499C2.18321 28.1299 1.85321 27.6499 1.85321 27.6499C1.85321 27.6499 1.6832 28.2199 1.5032 29.0999C1.4332 29.5499 1.37322 30.0699 1.33322 30.6399C1.31322 30.9299 1.2932 31.2199 1.2832 31.5199C1.2832 31.8199 1.30322 32.1299 1.33322 32.4399C1.38322 33.0599 1.4632 33.6899 1.6232 34.2799C1.8032 34.8699 2.03321 35.4399 2.32321 35.9199C2.89321 36.8999 3.8132 37.5799 5.0032 37.7499C5.1632 37.5099 5.27322 37.2599 5.36322 37.0199C5.44322 36.7699 5.5332 36.5299 5.5632 36.2799C5.6432 35.7799 5.60322 35.2599 5.48322 34.7399C5.38322 34.2199 5.22323 33.6899 4.99323 33.1599C4.77323 32.6499 4.49323 32.1099 4.24323 31.5899Z" fill="#BBA182"/>
<path d="M10.7131 36.1702C11.0731 35.8202 11.3731 35.4202 11.6331 35.0102C11.9131 34.6002 12.1631 34.1802 12.3631 33.7502C12.4631 33.5402 12.5431 33.3302 12.6431 33.1202C12.7431 32.9202 12.8331 32.7202 12.9131 32.5202C13.0731 32.1302 13.1931 31.7702 13.2931 31.4702C13.5331 30.8602 13.6331 30.4502 13.6331 30.4502C13.6331 30.4502 13.1431 30.5702 12.4131 30.8402C11.6631 31.1102 10.7631 31.5602 9.87311 32.2002C9.65311 32.3602 9.42311 32.5302 9.22311 32.7102C9.02311 32.8902 8.83311 33.0902 8.65311 33.2902C8.29311 33.7002 7.97311 34.1402 7.75311 34.6102C7.55311 35.0802 7.44312 35.5802 7.44312 36.0702C7.44312 36.3202 7.46312 36.5602 7.54312 36.8102C7.62312 37.0602 7.73312 37.3002 7.88312 37.5402C9.10312 37.4202 9.9731 36.8702 10.7131 36.1702Z" fill="#BBA182"/>
<path d="M7.20331 28.4298C7.36331 28.2198 7.49329 27.9998 7.59329 27.7698C7.69329 27.5398 7.76329 27.2998 7.81329 27.0498C7.86329 26.7998 7.8833 26.5398 7.9133 26.2798C7.9533 25.7598 7.9133 25.1998 7.8233 24.6298C7.7333 24.0598 7.63331 23.4998 7.49331 22.9198C7.20331 21.7798 6.8833 20.7098 6.6033 19.8898C6.3233 19.0698 6.12329 18.5498 6.12329 18.5498C6.12329 18.5498 6.04331 18.6698 5.92331 18.8998C5.80331 19.1298 5.64328 19.4598 5.46328 19.8598C5.08328 20.6598 4.70331 21.7998 4.45331 22.9998C4.35331 23.6098 4.2933 24.2398 4.2933 24.8398C4.2833 25.1398 4.32331 25.4498 4.36331 25.7398C4.40331 26.0298 4.46331 26.3198 4.55331 26.5898C4.72331 27.1398 4.94329 27.6198 5.31329 28.0398C5.67329 28.4598 6.12331 28.7898 6.67331 29.0298C6.88331 28.8498 7.05331 28.6398 7.20331 28.4298Z" fill="#BBA182"/>
<path d="M16.6833 24.0898C16.7833 23.9298 16.8433 23.8398 16.8433 23.8398C16.8433 23.8398 16.7133 23.8398 16.4833 23.8498C16.2533 23.8598 15.9433 23.8798 15.5633 23.9298C15.1833 23.9798 14.7333 24.0498 14.2533 24.1598C14.0133 24.2198 13.7633 24.2798 13.5133 24.3498C13.2733 24.4298 13.0233 24.5098 12.7733 24.6198C12.2733 24.8198 11.7633 25.0598 11.3133 25.3598C10.8733 25.6598 10.4633 26.0098 10.1333 26.4098C9.9633 26.5998 9.8333 26.8198 9.7233 27.0398C9.6133 27.2598 9.52329 27.4898 9.46329 27.7298C9.40329 27.9698 9.37329 28.2198 9.37329 28.4698C9.38329 28.7298 9.43332 28.9898 9.52332 29.2598C10.1133 29.3598 10.6633 29.3298 11.1733 29.2198C11.6733 29.1098 12.1633 28.9198 12.5933 28.6698C12.8133 28.5498 13.0133 28.4098 13.2133 28.2598C13.3133 28.1898 13.4033 28.1098 13.5033 28.0298C13.6033 27.9498 13.6933 27.8698 13.7933 27.7898C14.1733 27.4698 14.5033 27.1098 14.8033 26.7498C15.1233 26.3998 15.4133 26.0398 15.6533 25.6998C15.7133 25.6198 15.7733 25.5298 15.8333 25.4498C15.8933 25.3698 15.9533 25.2898 16.0133 25.2098C16.1233 25.0498 16.2233 24.9098 16.3133 24.7698C16.4533 24.4898 16.5833 24.2598 16.6833 24.0898Z" fill="#BBA182"/>
<path d="M10.4532 21.0701C10.9632 20.8101 11.3533 20.4701 11.6433 20.0601C11.9533 19.6701 12.1632 19.2101 12.3132 18.7001C12.6232 17.7001 12.6732 16.5101 12.6632 15.3601C12.6532 15.0701 12.6432 14.7801 12.6232 14.5001C12.6132 14.2201 12.5932 13.9501 12.5732 13.6801C12.5332 13.1501 12.4832 12.6501 12.4332 12.2301C12.3432 11.3901 12.2532 10.8301 12.2532 10.8301C12.2532 10.8301 12.1533 10.9401 11.9933 11.1301C11.8233 11.3201 11.5933 11.5901 11.3333 11.9501C11.0733 12.3001 10.7733 12.7101 10.4933 13.1901C10.2133 13.6701 9.92324 14.1801 9.69324 14.7401C9.46324 15.3001 9.25323 15.8801 9.12323 16.4701C9.00323 17.0601 8.93323 17.6501 8.96323 18.2101C9.05323 19.3301 9.49325 20.3501 10.4532 21.0701Z" fill="#BBA182"/>
<path d="M18.8531 20.4599C19.2431 20.1799 19.6032 19.8899 19.9232 19.6099C20.2432 19.3299 20.5432 19.0699 20.7732 18.8299C21.0032 18.5899 21.2131 18.3999 21.3431 18.2599C21.4731 18.1199 21.5431 18.0399 21.5431 18.0399C21.5431 18.0399 21.0432 17.9299 20.2632 17.8499C19.8732 17.8099 19.4231 17.7899 18.9331 17.7999C18.4431 17.7999 17.9031 17.8399 17.3731 17.9199C16.2931 18.0799 15.2132 18.4399 14.3932 19.0599C13.9932 19.3699 13.6531 19.7499 13.4131 20.1799C13.1931 20.6199 13.0831 21.1199 13.1031 21.6699C14.2131 22.1599 15.2631 22.1099 16.2231 21.8399C16.7131 21.6999 17.1731 21.4999 17.6031 21.2599C18.0531 21.0199 18.4831 20.7499 18.8531 20.4599Z" fill="#BBA182"/>
<path d="M27.5132 71.84C23.7332 70.31 19.8732 68.52 16.7132 65.9C13.2832 63.05 10.8932 59.33 9.2132 55.26C7.1332 50.17 5.62322 44.85 5.83322 39.3C6.02322 34.47 7.25322 29.74 9.30322 25.36C10.9532 21.82 13.0932 18.29 15.6732 15.22C15.5632 14.75 15.5432 14.3 15.6232 13.88C15.7132 13.37 15.9232 12.88 16.2232 12.44C16.8132 11.54 17.7632 10.81 18.7432 10.27C19.7332 9.72999 20.7532 9.38999 21.5132 9.20999C21.8932 9.11999 22.2132 9.06 22.4332 9.03C22.5432 9.02 22.6232 9.01 22.6832 9H22.7632C22.7632 9 22.7532 9.01999 22.7332 9.06999C22.7132 9.12999 22.6732 9.19999 22.6232 9.29999C22.5332 9.48999 22.3832 9.77 22.2032 10.11C21.8432 10.78 21.3432 11.67 20.7632 12.53C20.4732 12.96 20.1432 13.38 19.8032 13.77C19.6332 13.97 19.4532 14.15 19.2632 14.32C19.0832 14.5 18.8832 14.66 18.6832 14.8C18.2732 15.08 17.8332 15.31 17.3532 15.43C16.9932 15.52 16.6232 15.56 16.2232 15.54C15.1132 16.87 14.1032 18.29 13.1632 19.71C9.50321 25.26 6.87321 31.66 6.48321 38.34C6.14321 44.07 7.51322 49.53 9.67322 54.81C10.8132 57.59 12.2232 60.31 14.1932 62.61C16.1632 64.91 18.5432 66.73 21.1732 68.21C26.2032 71.05 33.4532 74.19 40.4032 76.51L42.4532 77.15C45.8632 78.22 49.1332 79.06 51.9532 79.53C52.3332 79.59 51.1632 81.58 50.7932 81.52C47.8132 81.02 44.2032 79.59 40.5432 77.93L38.6232 77.04C34.5832 75.13 30.6132 73.09 27.5132 71.84Z" fill="#BBA182"/>
<path d="M105.415 73.0902C105.945 72.7002 106.425 72.4102 106.935 72.2302C107.445 72.0502 107.975 71.9502 108.535 71.9302C109.645 71.8802 110.855 72.0902 112.015 72.3702C113.175 72.6602 114.275 73.0002 115.105 73.2802C115.925 73.5502 116.455 73.7702 116.455 73.7702C116.455 73.7702 115.935 74.0702 115.085 74.4302C114.245 74.7902 113.075 75.2002 111.805 75.4202C110.545 75.6402 109.165 75.6702 107.955 75.3202C106.775 74.9902 105.755 74.2502 105.415 73.0902Z" fill="#BBA182"/>
<path d="M108.965 67.9501C108.515 68.9601 107.855 69.9501 106.995 70.6001C106.565 70.9201 106.085 71.1601 105.575 71.2601C105.065 71.3601 104.515 71.3301 103.975 71.1101C103.945 69.9001 104.275 68.9401 104.795 68.1001C105.315 67.2701 106.055 66.5501 106.815 65.9201C107.575 65.3001 108.355 64.7801 108.945 64.4101C109.535 64.0401 109.935 63.8301 109.935 63.8301C109.935 63.8301 109.925 63.9601 109.905 64.1901C109.885 64.4101 109.845 64.7401 109.785 65.1301C109.665 65.9001 109.415 66.9401 108.965 67.9501Z" fill="#BBA182"/>
<path d="M117.295 70.6598C116.135 70.5998 115.105 70.1598 114.385 69.1898C114.965 68.1598 115.835 67.5998 116.885 67.2798C117.935 66.9598 119.155 66.8698 120.355 66.8298C121.555 66.7998 122.745 66.8198 123.635 66.8298C124.545 66.8398 125.125 66.8598 125.125 66.8598C125.125 66.8598 125.015 66.9798 124.805 67.1798C124.595 67.3698 124.295 67.6498 123.915 67.9598C123.165 68.5798 122.095 69.3098 120.915 69.8398C119.745 70.3698 118.465 70.7098 117.295 70.6598Z" fill="#BBA182"/>
<path d="M115.095 66.0702C114.435 66.9002 113.515 67.4502 112.375 67.4002C111.905 66.2802 111.985 65.2202 112.305 64.2402C112.625 63.2702 113.175 62.3702 113.745 61.5902C114.315 60.8102 114.885 60.1502 115.315 59.6702C115.525 59.4302 115.705 59.2402 115.825 59.1102C115.945 58.9802 116.015 58.9102 116.015 58.9102C116.015 58.9102 116.055 59.0302 116.115 59.2402C116.175 59.4602 116.235 59.7602 116.295 60.1402C116.415 60.9002 116.475 61.9402 116.315 63.0302C116.145 64.1202 115.745 65.2302 115.095 66.0702Z" fill="#BBA182"/>
<path d="M129.305 57.7498C130.125 57.4898 130.665 57.3398 130.665 57.3398C130.665 57.3398 130.615 57.4798 130.515 57.7098C130.405 57.9398 130.235 58.2598 130.025 58.6298C129.815 59.0098 129.555 59.4498 129.255 59.9098C129.105 60.1398 128.945 60.3798 128.775 60.6098L128.645 60.7898L128.475 61.0098C128.365 61.1598 128.245 61.2998 128.125 61.4498C127.165 62.5998 125.975 63.4698 124.805 63.8398C123.635 64.2098 122.505 64.0898 121.535 63.3698C121.805 62.2098 122.455 61.4198 123.335 60.7298C123.545 60.5598 123.795 60.3998 124.035 60.2298C124.275 60.0698 124.535 59.9098 124.795 59.7498C125.055 59.5898 125.325 59.4298 125.595 59.2798C125.855 59.1398 126.115 59.0098 126.375 58.8898C127.405 58.3898 128.485 58.0098 129.305 57.7498Z" fill="#BBA182"/>
<path d="M121.245 59.8102C120.935 60.8102 120.215 61.6302 119.115 61.8902C118.355 60.9502 118.105 59.9302 118.045 58.9602C117.995 57.9902 118.115 57.0802 118.225 56.3102C118.265 55.9802 118.395 55.4302 118.515 55.0002C118.635 54.5602 118.775 54.1602 118.895 53.8202C119.015 53.4802 119.135 53.2102 119.215 53.0202C119.285 52.8302 119.335 52.7202 119.335 52.7202C119.335 52.7202 119.415 52.8302 119.535 53.0202C119.665 53.2202 119.825 53.5002 120.005 53.8502C120.365 54.5402 120.805 55.5202 121.105 56.6002C121.185 56.8702 121.255 57.1402 121.305 57.4302C121.355 57.6902 121.395 57.9502 121.415 58.2302C121.435 58.5002 121.415 58.7702 121.395 59.0402C121.375 59.3002 121.315 59.5602 121.245 59.8102Z" fill="#BBA182"/>
<path d="M130.565 53.68C130.375 53.91 130.155 54.12 129.925 54.31C129.705 54.5 129.465 54.68 129.225 54.83C128.265 55.45 127.205 55.7 126.045 55.37C125.945 54.79 125.995 54.26 126.145 53.77C126.225 53.53 126.325 53.29 126.455 53.07C126.585 52.84 126.735 52.63 126.885 52.41C127.505 51.55 128.465 50.8 129.435 50.13C130.375 49.46 131.365 48.88 132.125 48.46C132.895 48.05 133.385 47.79 133.385 47.79C133.385 47.79 133.365 47.93 133.305 48.18C133.235 48.43 133.135 48.78 132.985 49.2C132.695 50.04 132.295 51.17 131.635 52.2C131.315 52.72 130.955 53.23 130.565 53.68Z" fill="#BBA182"/>
<path d="M124.305 53.2299C124.075 53.6799 123.745 54.0899 123.285 54.4099C122.235 53.8099 121.635 52.9099 121.315 51.9299C121.235 51.6899 121.175 51.4399 121.125 51.1799C121.105 51.0499 121.085 50.9299 121.065 50.7999C121.045 50.6699 121.025 50.5399 121.005 50.4099C120.935 49.8899 120.925 49.3799 120.935 48.8799C120.995 47.8899 121.065 46.9599 121.185 46.2799C121.245 45.9399 121.305 45.6599 121.345 45.4699C121.375 45.2799 121.395 45.1699 121.395 45.1699C121.395 45.1699 121.495 45.2599 121.655 45.4199C121.825 45.5799 122.035 45.8199 122.275 46.1199C122.765 46.7199 123.375 47.5799 123.875 48.5799C124.345 49.5699 124.655 50.6899 124.645 51.7499C124.645 52.0199 124.605 52.2699 124.545 52.5199C124.505 52.7699 124.415 52.9999 124.305 53.2299Z" fill="#BBA182"/>
<path d="M132.575 44.1502C132.425 44.4202 132.275 44.6802 132.095 44.9102C131.915 45.1502 131.715 45.3702 131.505 45.5602C130.675 46.3602 129.685 46.8202 128.485 46.7102C128.275 46.1602 128.215 45.6402 128.275 45.1302C128.305 44.8802 128.365 44.6302 128.445 44.3802C128.525 44.1302 128.605 43.8902 128.715 43.6502C128.935 43.1602 129.245 42.6902 129.595 42.2302C129.775 42.0002 129.965 41.7702 130.135 41.5502C130.315 41.3202 130.515 41.1002 130.705 40.8902C131.485 40.0202 132.355 39.2302 132.965 38.6402C133.585 38.0502 134.025 37.6802 134.025 37.6802C134.025 37.6802 134.045 38.2802 133.985 39.1802C133.955 39.6302 133.865 40.1502 133.755 40.7102C133.705 40.9902 133.635 41.2802 133.565 41.5702C133.495 41.8602 133.425 42.1602 133.305 42.4502C133.125 43.0302 132.875 43.6102 132.575 44.1502Z" fill="#BBA182"/>
<path d="M125.625 46.0699C124.475 45.6799 123.715 44.9199 123.215 44.0399C123.085 43.8199 122.985 43.5999 122.885 43.3599C122.775 43.1299 122.675 42.8899 122.595 42.6499C122.425 42.1699 122.305 41.6899 122.225 41.2199C122.135 40.7499 122.035 40.2899 121.995 39.8699C121.965 39.6599 121.945 39.4499 121.935 39.2599C121.925 39.0699 121.915 38.8899 121.895 38.7199C121.825 38.0599 121.835 37.6299 121.835 37.6299C121.835 37.6299 122.275 37.8699 122.915 38.3299C123.075 38.4399 123.245 38.5699 123.425 38.7099C123.605 38.8499 123.785 39.0099 123.965 39.1699C124.315 39.4999 124.685 39.8899 125.025 40.3099C125.195 40.5199 125.365 40.7399 125.525 40.9799C125.605 41.0899 125.685 41.2099 125.755 41.3299C125.825 41.4499 125.885 41.5699 125.945 41.6899C126.185 42.1799 126.365 42.6899 126.465 43.2099C126.515 43.4699 126.545 43.7199 126.535 43.9799C126.525 44.2299 126.485 44.4799 126.415 44.7199C126.265 45.2199 126.015 45.6699 125.625 46.0699Z" fill="#BBA182"/>
<path d="M129.785 31.5899C130.055 31.0699 130.345 30.5699 130.625 30.1099C130.915 29.6399 131.175 29.2099 131.395 28.8499C131.845 28.1299 132.175 27.6499 132.175 27.6499C132.175 27.6499 132.345 28.2199 132.525 29.0999C132.595 29.5499 132.655 30.0699 132.695 30.6399C132.715 30.9299 132.735 31.2199 132.745 31.5199C132.745 31.8199 132.725 32.1299 132.695 32.4399C132.645 33.0599 132.565 33.6899 132.405 34.2799C132.225 34.8699 131.995 35.4399 131.705 35.9199C131.135 36.8999 130.215 37.5799 129.025 37.7499C128.865 37.5099 128.755 37.2599 128.665 37.0199C128.585 36.7699 128.495 36.5299 128.465 36.2799C128.385 35.7799 128.425 35.2599 128.545 34.7399C128.645 34.2199 128.805 33.6899 129.035 33.1599C129.255 32.6499 129.535 32.1099 129.785 31.5899Z" fill="#BBA182"/>
<path d="M123.315 36.1702C122.955 35.8202 122.655 35.4202 122.395 35.0102C122.115 34.6002 121.865 34.1802 121.665 33.7502C121.565 33.5402 121.485 33.3302 121.385 33.1202C121.285 32.9202 121.195 32.7202 121.115 32.5202C120.955 32.1302 120.835 31.7702 120.735 31.4702C120.495 30.8602 120.395 30.4502 120.395 30.4502C120.395 30.4502 120.885 30.5702 121.615 30.8402C122.365 31.1102 123.265 31.5602 124.155 32.2002C124.375 32.3602 124.605 32.5302 124.805 32.7102C125.005 32.8902 125.195 33.0902 125.375 33.2902C125.735 33.7002 126.055 34.1402 126.275 34.6102C126.475 35.0802 126.585 35.5802 126.585 36.0702C126.585 36.3202 126.565 36.5602 126.485 36.8102C126.405 37.0602 126.295 37.3002 126.145 37.5402C124.925 37.4202 124.055 36.8702 123.315 36.1702Z" fill="#BBA182"/>
<path d="M126.825 28.4298C126.665 28.2198 126.535 27.9998 126.435 27.7698C126.335 27.5398 126.265 27.2998 126.215 27.0498C126.165 26.7998 126.145 26.5398 126.115 26.2798C126.075 25.7598 126.115 25.1998 126.205 24.6298C126.295 24.0598 126.395 23.4998 126.535 22.9198C126.825 21.7798 127.145 20.7098 127.425 19.8898C127.705 19.0698 127.905 18.5498 127.905 18.5498C127.905 18.5498 127.985 18.6698 128.105 18.8998C128.225 19.1298 128.385 19.4598 128.565 19.8598C128.945 20.6598 129.325 21.7998 129.575 22.9998C129.675 23.6098 129.735 24.2398 129.735 24.8398C129.745 25.1398 129.705 25.4498 129.665 25.7398C129.625 26.0298 129.565 26.3198 129.475 26.5898C129.305 27.1398 129.085 27.6198 128.715 28.0398C128.355 28.4598 127.905 28.7898 127.355 29.0298C127.145 28.8498 126.975 28.6398 126.825 28.4298Z" fill="#BBA182"/>
<path d="M117.345 24.0898C117.245 23.9298 117.185 23.8398 117.185 23.8398C117.185 23.8398 117.315 23.8398 117.545 23.8498C117.775 23.8598 118.085 23.8798 118.465 23.9298C118.845 23.9798 119.295 24.0498 119.775 24.1598C120.015 24.2198 120.265 24.2798 120.515 24.3498C120.755 24.4298 121.005 24.5098 121.255 24.6198C121.755 24.8198 122.265 25.0598 122.715 25.3598C123.155 25.6598 123.565 26.0098 123.895 26.4098C124.065 26.5998 124.195 26.8198 124.305 27.0398C124.415 27.2598 124.505 27.4898 124.565 27.7298C124.625 27.9698 124.655 28.2198 124.655 28.4698C124.645 28.7298 124.595 28.9898 124.505 29.2598C123.915 29.3598 123.365 29.3298 122.855 29.2198C122.355 29.1098 121.865 28.9198 121.435 28.6698C121.215 28.5498 121.015 28.4098 120.815 28.2598C120.715 28.1898 120.625 28.1098 120.525 28.0298C120.425 27.9498 120.335 27.8698 120.235 27.7898C119.855 27.4698 119.525 27.1098 119.225 26.7498C118.905 26.3998 118.615 26.0398 118.375 25.6998C118.315 25.6198 118.255 25.5298 118.195 25.4498C118.135 25.3698 118.075 25.2898 118.015 25.2098C117.905 25.0498 117.805 24.9098 117.715 24.7698C117.575 24.4898 117.445 24.2598 117.345 24.0898Z" fill="#BBA182"/>
<path d="M123.575 21.0701C123.065 20.8101 122.675 20.4701 122.385 20.0601C122.075 19.6701 121.865 19.2101 121.715 18.7001C121.405 17.7001 121.355 16.5101 121.365 15.3601C121.375 15.0701 121.385 14.7801 121.405 14.5001C121.415 14.2201 121.435 13.9501 121.455 13.6801C121.495 13.1501 121.545 12.6501 121.595 12.2301C121.685 11.3901 121.775 10.8301 121.775 10.8301C121.775 10.8301 121.875 10.9401 122.035 11.1301C122.205 11.3201 122.435 11.5901 122.695 11.9501C122.955 12.3001 123.255 12.7101 123.535 13.1901C123.815 13.6701 124.105 14.1801 124.335 14.7401C124.565 15.3001 124.775 15.8801 124.905 16.4701C125.025 17.0601 125.095 17.6501 125.065 18.2101C124.975 19.3301 124.535 20.3501 123.575 21.0701Z" fill="#BBA182"/>
<path d="M115.175 20.4599C114.785 20.1799 114.425 19.8899 114.105 19.6099C113.785 19.3299 113.485 19.0699 113.255 18.8299C113.025 18.5899 112.815 18.3999 112.685 18.2599C112.555 18.1199 112.485 18.0399 112.485 18.0399C112.485 18.0399 112.985 17.9299 113.765 17.8499C114.155 17.8099 114.605 17.7899 115.095 17.7999C115.585 17.7999 116.125 17.8399 116.655 17.9199C117.735 18.0799 118.815 18.4399 119.635 19.0599C120.035 19.3699 120.375 19.7499 120.615 20.1799C120.835 20.6199 120.945 21.1199 120.925 21.6699C119.815 22.1599 118.765 22.1099 117.805 21.8399C117.315 21.6999 116.855 21.4999 116.425 21.2599C115.975 21.0199 115.545 20.7499 115.175 20.4599Z" fill="#BBA182"/>
<path d="M106.515 71.84C110.295 70.31 114.155 68.52 117.315 65.9C120.745 63.05 123.135 59.33 124.815 55.26C126.895 50.17 128.405 44.85 128.195 39.3C128.005 34.47 126.775 29.74 124.725 25.36C123.075 21.82 120.935 18.29 118.355 15.22C118.465 14.75 118.485 14.3 118.405 13.88C118.315 13.37 118.105 12.88 117.805 12.44C117.215 11.54 116.265 10.81 115.285 10.27C114.295 9.72999 113.275 9.38999 112.515 9.20999C112.135 9.11999 111.815 9.06 111.595 9.03C111.485 9.02 111.405 9.01 111.345 9H111.265C111.265 9 111.275 9.01999 111.295 9.06999C111.315 9.12999 111.355 9.19999 111.405 9.29999C111.495 9.48999 111.645 9.77 111.825 10.11C112.185 10.78 112.685 11.67 113.265 12.53C113.555 12.96 113.885 13.38 114.225 13.77C114.395 13.97 114.575 14.15 114.765 14.32C114.945 14.5 115.145 14.66 115.345 14.8C115.755 15.08 116.195 15.31 116.675 15.43C117.035 15.52 117.405 15.56 117.805 15.54C118.915 16.87 119.925 18.29 120.865 19.71C124.525 25.26 127.155 31.66 127.545 38.34C127.885 44.07 126.515 49.53 124.355 54.81C123.215 57.59 121.805 60.31 119.835 62.61C117.865 64.91 115.485 66.73 112.855 68.21C107.825 71.05 100.575 74.19 93.6249 76.51L91.5749 77.15C88.1649 78.22 84.8949 79.06 82.0749 79.53C81.6949 79.59 82.8649 81.58 83.2349 81.52C86.2149 81.02 89.8249 79.59 93.4849 77.93L95.4049 77.04C99.4449 75.13 103.415 73.09 106.515 71.84Z" fill="#BBA182"/>
<path d="M64.3703 29.35H61.8223V7.172H60.3663L56.8563 8.004L56.9083 8.654L59.6643 8.108V29.35H56.6483V30H64.3703V29.35ZM79.071 11.722C78.291 7.588 75.509 7.224 73.689 7.224C71.869 7.224 69.087 7.588 68.307 11.722C67.917 14.088 67.761 15.83 67.761 18.794C67.761 21.758 67.917 23.5 68.307 25.866C69.087 30 71.869 30.364 73.689 30.364C75.509 30.364 78.291 30 79.071 25.866C79.461 23.5 79.617 21.758 79.617 18.794C79.617 15.83 79.461 14.088 79.071 11.722ZM77.147 25.554C76.653 28.778 75.717 29.662 73.689 29.662C71.661 29.662 70.725 28.778 70.231 25.554C69.841 23.344 69.867 21.186 69.867 18.794C69.867 16.402 69.841 14.244 70.231 12.034C70.725 8.81 71.661 7.926 73.689 7.926C75.717 7.926 76.653 8.81 77.147 12.034C77.537 14.244 77.511 16.402 77.511 18.794C77.511 21.186 77.537 23.344 77.147 25.554Z" fill="#BBA182"/>
<path d="M44.644 45.19C44.0574 45.19 43.5307 45.0867 43.064 44.88C42.5974 44.6667 42.2174 44.3867 41.924 44.04L42.964 42.89C43.3307 43.3967 43.9007 43.65 44.674 43.65C45.154 43.65 45.5674 43.5 45.914 43.2C46.2607 42.9 46.4674 42.5233 46.534 42.07H43.904V40.71H46.514C46.4207 40.2967 46.204 39.9533 45.864 39.68C45.524 39.4067 45.124 39.27 44.664 39.27C43.924 39.27 43.3874 39.5067 43.054 39.98L41.974 38.77C42.2674 38.45 42.6507 38.1967 43.124 38.01C43.604 37.8233 44.1107 37.73 44.644 37.73C45.724 37.73 46.624 38.08 47.344 38.78C48.0707 39.4733 48.434 40.3667 48.434 41.46C48.434 42.5467 48.0707 43.44 47.344 44.14C46.624 44.84 45.724 45.19 44.644 45.19ZM49.4769 45V40.02H51.1269V42.13H51.1569L52.7869 40.02H54.7769L52.8269 42.35L54.8669 45H52.8569L51.1569 42.75H51.1269V45H49.4769ZM57.7396 45.16C56.9329 45.16 56.2662 44.92 55.7396 44.44C55.2129 43.96 54.9496 43.3167 54.9496 42.51C54.9496 41.7167 55.2129 41.0767 55.7396 40.59C56.2729 40.1033 56.9362 39.86 57.7296 39.86C58.0829 39.86 58.4296 39.9233 58.7696 40.05C59.1162 40.17 59.3862 40.33 59.5796 40.53L58.6296 41.63C58.5429 41.51 58.4162 41.4133 58.2496 41.34C58.0896 41.2667 57.9262 41.23 57.7596 41.23C57.4196 41.23 57.1429 41.3567 56.9296 41.61C56.7162 41.8567 56.6096 42.1567 56.6096 42.51C56.6096 42.8633 56.7162 43.1633 56.9296 43.41C57.1429 43.6567 57.4262 43.78 57.7796 43.78C58.1662 43.78 58.4629 43.6567 58.6696 43.41L59.5796 44.52C59.1396 44.9467 58.5262 45.16 57.7396 45.16ZM60.2289 45V40.02H65.1489V45H63.4989V41.28H61.8789V45H60.2289ZM68.92 45.16C68.14 45.16 67.4867 44.9267 66.96 44.46C66.44 43.9867 66.18 43.3433 66.18 42.53C66.18 41.73 66.4334 41.0867 66.94 40.6C67.4534 40.1067 68.0967 39.86 68.87 39.86C69.6167 39.86 70.22 40.1033 70.68 40.59C71.14 41.07 71.37 41.73 71.37 42.57C71.37 42.75 71.3667 42.88 71.36 42.96H67.75C67.7767 43.2267 67.9067 43.45 68.14 43.63C68.3734 43.81 68.64 43.9 68.94 43.9C69.42 43.9 69.7867 43.7267 70.04 43.38L71.18 44.1C70.6934 44.8067 69.94 45.16 68.92 45.16ZM67.75 41.94H69.86C69.86 41.6667 69.7734 41.44 69.6 41.26C69.4334 41.08 69.1934 40.99 68.88 40.99C68.5734 40.99 68.3134 41.0833 68.1 41.27C67.8867 41.4567 67.77 41.68 67.75 41.94ZM72.3871 47.4V40.02H73.9471V40.63H73.9771C74.1371 40.41 74.3537 40.23 74.6271 40.09C74.9071 39.95 75.2204 39.88 75.5671 39.88C76.2671 39.88 76.8337 40.1367 77.2671 40.65C77.7071 41.1567 77.9271 41.77 77.9271 42.49C77.9271 43.2233 77.7104 43.85 77.2771 44.37C76.8504 44.8833 76.2771 45.14 75.5571 45.14C75.2504 45.14 74.9604 45.08 74.6871 44.96C74.4137 44.8333 74.2004 44.6633 74.0471 44.45H74.0271V47.4H72.3871ZM75.1671 43.78C75.5337 43.78 75.8204 43.6533 76.0271 43.4C76.2337 43.1467 76.3371 42.8433 76.3371 42.49C76.3371 42.1433 76.2337 41.8467 76.0271 41.6C75.8204 41.3467 75.5337 41.22 75.1671 41.22C74.8137 41.22 74.5237 41.35 74.2971 41.61C74.0771 41.87 73.9671 42.1667 73.9671 42.5C73.9671 42.84 74.0771 43.14 74.2971 43.4C74.5237 43.6533 74.8137 43.78 75.1671 43.78ZM79.814 45V41.28H78.324V40.02H82.954V41.28H81.464V45H79.814ZM86.108 45.16C85.3347 45.16 84.6813 44.9133 84.148 44.42C83.6147 43.9267 83.348 43.2833 83.348 42.49C83.348 41.6967 83.6147 41.06 84.148 40.58C84.6813 40.1 85.3347 39.86 86.108 39.86C86.888 39.86 87.5447 40.1 88.078 40.58C88.6113 41.06 88.878 41.6967 88.878 42.49C88.878 43.2833 88.6113 43.9267 88.078 44.42C87.5447 44.9133 86.888 45.16 86.108 45.16ZM85.248 43.4C85.4613 43.6533 85.7513 43.78 86.118 43.78C86.4847 43.78 86.7713 43.6533 86.978 43.4C87.1913 43.14 87.298 42.8367 87.298 42.49C87.298 42.15 87.1913 41.8533 86.978 41.6C86.7647 41.3467 86.4747 41.22 86.108 41.22C85.7413 41.22 85.4547 41.3467 85.248 41.6C85.0413 41.8467 84.938 42.1433 84.938 42.49C84.938 42.8367 85.0413 43.14 85.248 43.4ZM89.9164 45V40.02H92.6764C93.8964 40.02 94.5064 40.4567 94.5064 41.33C94.5064 41.5833 94.433 41.8033 94.2864 41.99C94.1464 42.1767 93.9564 42.3067 93.7164 42.38V42.4C94.003 42.4533 94.243 42.5833 94.4364 42.79C94.6297 42.9967 94.7264 43.2567 94.7264 43.57C94.7264 44.0433 94.5464 44.4 94.1864 44.64C93.8264 44.88 93.3664 45 92.8064 45H89.9164ZM91.5164 43.99H92.3264C92.5464 43.99 92.7264 43.9433 92.8664 43.85C93.013 43.75 93.0864 43.61 93.0864 43.43C93.0864 43.0633 92.8264 42.88 92.3064 42.88H91.5164V43.99ZM91.5164 42.03H92.3164C92.4897 42.03 92.6364 41.9867 92.7564 41.9C92.883 41.8133 92.9464 41.6833 92.9464 41.51C92.9464 41.1833 92.713 41.02 92.2464 41.02H91.5164V42.03ZM27.9645 57V52.32H30.1545C30.5811 52.32 30.9378 52.4133 31.2245 52.6C31.5178 52.7867 31.6645 53.0933 31.6645 53.52C31.6645 53.7667 31.5878 53.9833 31.4345 54.17C31.2878 54.35 31.0911 54.4667 30.8445 54.52V54.53C31.1578 54.5633 31.4111 54.6833 31.6045 54.89C31.7978 55.0967 31.8945 55.3667 31.8945 55.7C31.8945 56.0933 31.7378 56.41 31.4245 56.65C31.1111 56.8833 30.6878 57 30.1545 57H27.9645ZM28.6445 56.42H30.0745C30.4011 56.42 30.6678 56.3567 30.8745 56.23C31.0878 56.1033 31.1945 55.9067 31.1945 55.64C31.1945 55.1133 30.8478 54.85 30.1545 54.85H28.6445V56.42ZM28.6445 54.29H30.1345C30.3678 54.29 30.5678 54.2333 30.7345 54.12C30.9078 54.0067 30.9945 53.83 30.9945 53.59C30.9945 53.1167 30.6678 52.88 30.0145 52.88H28.6445V54.29ZM35.8551 57V52.32H36.5351V54.28H39.2251V52.32H39.9051V57H39.2251V54.85H36.5351V57H35.8551ZM42.9747 57.12C42.5547 57.12 42.178 57.0033 41.8447 56.77C41.518 56.53 41.3547 56.1733 41.3547 55.7C41.3547 55.4667 41.3947 55.2633 41.4747 55.09C41.5547 54.91 41.6747 54.7633 41.8347 54.65C41.9947 54.5367 42.168 54.4467 42.3547 54.38C42.5414 54.3067 42.7714 54.2533 43.0447 54.22C43.318 54.18 43.5714 54.1567 43.8047 54.15C44.0447 54.1367 44.328 54.13 44.6547 54.13V53.98C44.6547 53.1733 44.238 52.77 43.4047 52.77C42.8447 52.77 42.3814 52.9533 42.0147 53.32L41.6347 52.87C42.0814 52.4233 42.6947 52.2 43.4747 52.2C44.008 52.2 44.4447 52.3467 44.7847 52.64C45.1247 52.9333 45.2947 53.3533 45.2947 53.9V55.95C45.2947 56.37 45.3214 56.72 45.3747 57H44.7647C44.718 56.7333 44.6947 56.48 44.6947 56.24H44.6747C44.268 56.8267 43.7014 57.12 42.9747 57.12ZM43.1547 56.56C43.6147 56.56 43.978 56.41 44.2447 56.11C44.518 55.81 44.6547 55.4433 44.6547 55.01V54.66H44.4547C44.1347 54.66 43.848 54.6733 43.5947 54.7C43.348 54.72 43.098 54.7633 42.8447 54.83C42.598 54.8967 42.4047 55 42.2647 55.14C42.1247 55.28 42.0547 55.4567 42.0547 55.67C42.0547 55.9767 42.1614 56.2033 42.3747 56.35C42.588 56.49 42.848 56.56 43.1547 56.56ZM47.0465 57V52.32H47.7265V56.41H49.9965V52.32H50.6765V56.41H52.9465V52.32H53.6265V57H47.0465ZM57.5054 57.12C56.8121 57.12 56.2354 56.8867 55.7754 56.42C55.3154 55.9533 55.0854 55.3667 55.0854 54.66C55.0854 53.96 55.3121 53.3767 55.7654 52.91C56.2187 52.4367 56.7787 52.2 57.4454 52.2C58.1521 52.2 58.7021 52.42 59.0954 52.86C59.4887 53.2933 59.6854 53.8467 59.6854 54.52C59.6854 54.6533 59.6821 54.76 59.6754 54.84H55.7954C55.8087 55.3133 55.9787 55.7167 56.3054 56.05C56.6321 56.3767 57.0321 56.54 57.5054 56.54C57.8321 56.54 58.1287 56.4633 58.3954 56.31C58.6621 56.15 58.8654 55.9567 59.0054 55.73L59.5154 56.13C58.9954 56.79 58.3254 57.12 57.5054 57.12ZM55.8054 54.3H58.9954C58.9754 53.8467 58.8287 53.48 58.5554 53.2C58.2887 52.9133 57.9187 52.77 57.4454 52.77C57.0054 52.77 56.6287 52.9233 56.3154 53.23C56.0087 53.53 55.8387 53.8867 55.8054 54.3ZM61.148 57V52.32H61.828V56.06H61.838L64.608 52.32H65.348V57H64.678V53.22H64.658L61.888 57H61.148ZM64.208 50.9C63.948 51.1267 63.6147 51.24 63.208 51.24C62.8014 51.24 62.4647 51.1267 62.198 50.9C61.938 50.6667 61.788 50.3533 61.748 49.96L62.208 49.87C62.2547 50.1233 62.368 50.3267 62.548 50.48C62.7347 50.6267 62.9547 50.7 63.208 50.7C63.4614 50.7 63.678 50.6267 63.858 50.48C64.0447 50.3267 64.1614 50.1233 64.208 49.87L64.668 49.96C64.628 50.3533 64.4747 50.6667 64.208 50.9ZM69.6641 57V52.32H70.3441V54.53H70.3741L72.5341 52.32H73.5141L71.1541 54.56L73.7541 57H72.7541L70.3741 54.64H70.3441V57H69.6641ZM76.716 57.12C75.996 57.12 75.3993 56.8867 74.926 56.42C74.4593 55.9533 74.226 55.3667 74.226 54.66C74.226 53.9533 74.4593 53.3667 74.926 52.9C75.3993 52.4333 75.996 52.2 76.716 52.2C77.4427 52.2 78.0393 52.4333 78.506 52.9C78.9793 53.3667 79.216 53.9533 79.216 54.66C79.216 55.3667 78.9793 55.9533 78.506 56.42C78.0393 56.8867 77.4427 57.12 76.716 57.12ZM76.716 56.54C77.2493 56.54 77.6793 56.3633 78.006 56.01C78.3327 55.65 78.496 55.2 78.496 54.66C78.496 54.12 78.3327 53.67 78.006 53.31C77.6793 52.95 77.2493 52.77 76.716 52.77C76.1893 52.77 75.7627 52.95 75.436 53.31C75.1093 53.67 74.946 54.12 74.946 54.66C74.946 55.1933 75.1093 55.64 75.436 56C75.7627 56.36 76.1893 56.54 76.716 56.54ZM80.6793 57V52.32H81.6593L83.3893 55.99H83.3993L85.1193 52.32H86.0993V57H85.4193V53.13H85.3993L83.5593 57H83.2093L81.3693 53.13H81.3593V57H80.6793ZM89.1661 57.12C88.7461 57.12 88.3694 57.0033 88.0361 56.77C87.7094 56.53 87.5461 56.1733 87.5461 55.7C87.5461 55.4667 87.5861 55.2633 87.6661 55.09C87.7461 54.91 87.8661 54.7633 88.0261 54.65C88.1861 54.5367 88.3594 54.4467 88.5461 54.38C88.7328 54.3067 88.9628 54.2533 89.2361 54.22C89.5094 54.18 89.7628 54.1567 89.9961 54.15C90.2361 54.1367 90.5194 54.13 90.8461 54.13V53.98C90.8461 53.1733 90.4294 52.77 89.5961 52.77C89.0361 52.77 88.5728 52.9533 88.2061 53.32L87.8261 52.87C88.2728 52.4233 88.8861 52.2 89.6661 52.2C90.1994 52.2 90.6361 52.3467 90.9761 52.64C91.3161 52.9333 91.4861 53.3533 91.4861 53.9V55.95C91.4861 56.37 91.5128 56.72 91.5661 57H90.9561C90.9094 56.7333 90.8861 56.48 90.8861 56.24H90.8661C90.4594 56.8267 89.8928 57.12 89.1661 57.12ZM89.3461 56.56C89.8061 56.56 90.1694 56.41 90.4361 56.11C90.7094 55.81 90.8461 55.4433 90.8461 55.01V54.66H90.6461C90.3261 54.66 90.0394 54.6733 89.7861 54.7C89.5394 54.72 89.2894 54.7633 89.0361 54.83C88.7894 54.8967 88.5961 55 88.4561 55.14C88.3161 55.28 88.2461 55.4567 88.2461 55.67C88.2461 55.9767 88.3528 56.2033 88.5661 56.35C88.7794 56.49 89.0394 56.56 89.3461 56.56ZM93.2379 57V52.32H93.9179V54.28H96.6079V52.32H97.2879V57H96.6079V54.85H93.9179V57H93.2379ZM98.4275 58.52V56.41H98.9675C99.4675 55.77 99.7175 54.82 99.7175 53.56V52.32H103.118V56.41H103.868V58.52H103.237V57H99.0575V58.52H98.4275ZM99.7375 56.41H102.448V52.89H100.378V53.75C100.378 54.7567 100.164 55.6433 99.7375 56.41ZM107.193 57.12C106.5 57.12 105.923 56.8867 105.463 56.42C105.003 55.9533 104.773 55.3667 104.773 54.66C104.773 53.96 105 53.3767 105.453 52.91C105.906 52.4367 106.466 52.2 107.133 52.2C107.84 52.2 108.39 52.42 108.783 52.86C109.176 53.2933 109.373 53.8467 109.373 54.52C109.373 54.6533 109.37 54.76 109.363 54.84H105.483C105.496 55.3133 105.666 55.7167 105.993 56.05C106.32 56.3767 106.72 56.54 107.193 56.54C107.52 56.54 107.816 56.4633 108.083 56.31C108.35 56.15 108.553 55.9567 108.693 55.73L109.203 56.13C108.683 56.79 108.013 57.12 107.193 57.12ZM105.493 54.3H108.683C108.663 53.8467 108.516 53.48 108.243 53.2C107.976 52.9133 107.606 52.77 107.133 52.77C106.693 52.77 106.316 52.9233 106.003 53.23C105.696 53.53 105.526 53.8867 105.493 54.3Z" fill="white"/>
</svg>
